# File created by Blade
# Date/Time:  Thu Sep 25 15:55:53 2014
# Frame Rate: 120.000 fps
#------------------------------------------------------
:FULLY-SPECIFIED
:DEGREES
817
root -1.667683 32.860307 2.900574 12.311204 -2.695617 -2.501594
Spine -12.622450 6.430932 1.303098
Head -10.662197 -6.991525 12.388171
LeftShoulder -15.379125 22.506162 29.183296
LeftArm 16.600337 -24.792487 -25.970606
LeftForeArm 10.099712 -0.000000 11.582659
LeftHand -27.458096 -0.000000 -9.092613
LeftHandThumb1 -26.253704 0.000000 33.147579
RightShoulder -20.611314 10.110160 -42.351950
RightArm -9.442440 10.334930 27.977869
RightForeArm -31.061380 0.000000 15.310885
RightHand -12.455358 -0.000000 8.360193
RightHandThumb1 -24.326973 -0.000000 -32.862282
LeftUpLeg -5.703847 13.173406 -2.746582
LeftLeg -0.638908 -0.000000 0.000000
LeftFoot -8.356568 -4.350148 -20.056036
LeftToeBase 4.355825 -0.000000 -0.000000
RightUpLeg -6.729145 -3.166595 2.239716
RightLeg 1.830113 -0.000000 -0.000000
RightFoot -8.918230 3.478667 -2.726841
RightToeBase -4.989379 -0.000000 0.000000
818
root -1.661794 32.860148 2.897525 12.236518 -2.778985 -2.502276
Spine -12.576164 6.440068 1.333934
Head -10.614598 -6.991336 12.477432
LeftShoulder -15.421058 22.538969 29.150868
LeftArm 16.674066 -24.818156 -25.965577
LeftForeArm 10.060381 -0.000000 11.575028
LeftHand -27.454951 -0.000000 -8.937920
LeftHandThumb1 -26.253704 0.000000 33.147579
RightShoulder -20.518415 10.131523 -42.317067
RightArm -9.246746 10.291668 27.942380
RightForeArm -31.022406 -0.000000 15.386657
RightHand -11.950557 -0.000000 8.455163
RightHandThumb1 -24.326973 -0.000000 -32.862282
LeftUpLeg -5.651868 13.223731 -2.747980
LeftLeg -0.587962 -0.000000 0.000000
LeftFoot -8.383143 -4.356432 -20.059791
LeftToeBase 4.272241 -0.000000 -0.000000
RightUpLeg -6.675396 -3.139963 2.216881
RightLeg 1.849446 -0.000000 -0.000000
RightFoot -8.909645 3.503057 -2.758154
RightToeBase -5.037814 -0.000000 0.000000
819
root -1.657126 32.859632 2.893751 12.192885 -2.855641 -2.514623
Spine -12.561454 6.466434 1.374504
Head -10.574691 -6.993734 12.527082
LeftShoulder -15.447098 22.571674 29.136329
LeftArm 16.726545 -24.900044 -26.004984
LeftForeArm 10.029678 -0.000000 11.616815
LeftHand -27.500087 -0.000000 -8.874055
LeftHandThumb1 -26.253704 0.000000 33.147579
RightShoulder -20.482652 10.161021 -42.349768
RightArm -9.041466 10.258963 27.966131
RightForeArm -31.053292 -0.000000 15.471596
RightHand -12.088586 0.000000 8.284178
RightHandThumb1 -24.326973 -0.000000 -32.862282
LeftUpLeg -5.613481 13.226613 -2.743886
LeftLeg -0.574650 -0.000000 0.000000
LeftFoot -8.418017 -4.286360 -20.054236
LeftToeBase 3.927300 -0.000000 -0.000000
RightUpLeg -6.657710 -3.104692 2.211643
RightLeg 1.880008 -0.000000 -0.000000
RightFoot -8.931756 3.526226 -2.764532
RightToeBase -4.993225 -0.000000 0.000000
820
root -1.651287 32.858809 2.890824 12.139931 -2.927610 -2.528288
Spine -12.532765 6.511245 1.424369
Head -10.543865 -7.009486 12.547429
LeftShoulder -15.440980 22.550112 29.117944
LeftArm 16.729240 -24.976458 -26.022950
LeftForeArm 10.026663 -0.000000 11.659904
LeftHand -27.521863 -0.000000 -8.915679
LeftHandThumb1 -26.253704 0.000000 33.147579
RightShoulder -20.455378 10.216534 -42.371657
RightArm -8.851044 10.188989 27.934390
RightForeArm -31.081287 -0.000000 15.480625
RightHand -11.974513 -0.000000 8.253894
RightHandThumb1 -24.326973 -0.000000 -32.862282
LeftUpLeg -5.561508 13.237065 -2.739357
LeftLeg -0.567956 -0.000000 0.000000
LeftFoot -8.457123 -4.237611 -20.034489
LeftToeBase 4.243209 -0.000000 -0.000000
RightUpLeg -6.630311 -3.064832 2.213997
RightLeg 1.913085 -0.000000 -0.000000
RightFoot -8.951768 3.472853 -2.857544
RightToeBase -4.959266 -0.000000 0.000000
821
root -1.646131 32.857918 2.888421 12.107243 -2.983434 -2.533211
Spine -12.531865 6.549851 1.449248
Head -10.546758 -7.077786 12.599353
LeftShoulder -15.461202 22.514715 29.111462
LeftArm 16.784336 -24.983381 -26.033158
LeftForeArm 10.018193 -0.000000 11.634589
LeftHand -27.503852 -0.000000 -8.972282
LeftHandThumb1 -26.253704 0.000000 33.147579
RightShoulder -20.450682 10.253981 -42.401298
RightArm -8.688449 10.175504 27.916234
RightForeArm -31.196812 -0.000000 15.525257
RightHand -11.961693 -0.000000 8.282679
RightHandThumb1 -24.326973 -0.000000 -32.862282
LeftUpLeg -5.540687 13.247675 -2.744326
LeftLeg -0.543155 -0.000000 0.000000
LeftFoot -8.508637 -4.173430 -19.991842
LeftToeBase 3.946649 -0.000000 -0.000000
RightUpLeg -6.618350 -3.031720 2.204483
RightLeg 1.939313 -0.000000 -0.000000
RightFoot -8.975917 3.452479 -2.891086
RightToeBase -4.936713 -0.000000 0.000000
822
root -1.642836 32.856868 2.885648 12.079239 -3.020943 -2.538414
Spine -12.538003 6.547546 1.470943
Head -10.556444 -7.148723 12.675631
LeftShoulder -15.479258 22.495782 29.118623
LeftArm 16.799863 -24.984890 -26.044790
LeftForeArm 10.035739 -0.000000 11.613319
LeftHand -27.470328 -0.000000 -9.059562
LeftHandThumb1 -26.253704 0.000000 33.147579
RightShoulder -20.408052 10.319534 -42.407073
RightArm -8.568137 10.105953 27.898855
RightForeArm -31.261996 -0.000000 15.589563
RightHand -12.211526 -0.000000 8.266851
RightHandThumb1 -24.326973 -0.000000 -32.862282
LeftUpLeg -5.520293 13.248425 -2.744382
LeftLeg -0.531638 -0.000000 0.000000
LeftFoot -8.529844 -4.143063 -19.989967
LeftToeBase 3.875477 -0.000000 -0.000000
RightUpLeg -6.598874 -2.983219 2.194750
RightLeg 1.940835 -0.000000 -0.000000
RightFoot -8.965787 3.428611 -2.883082
RightToeBase -4.977633 -0.000000 0.000000
823
root -1.639782 32.855569 2.882847 12.055892 -3.052164 -2.546281
Spine -12.551148 6.551116 1.492339
Head -10.544255 -7.212420 12.730152
LeftShoulder -15.487177 22.469352 29.115974
LeftArm 16.809175 -24.921023 -26.017854
LeftForeArm 10.078565 -0.000000 11.566498
LeftHand -27.396158 -0.000000 -9.125069
LeftHandThumb1 -26.253704 0.000000 33.147579
RightShoulder -20.362089 10.354796 -42.435792
RightArm -8.524036 10.041714 27.914534
RightForeArm -31.409695 -0.000000 15.715360
RightHand -12.405423 -0.000000 8.008424
RightHandThumb1 -24.326973 -0.000000 -32.862282
LeftUpLeg -5.500399 13.245550 -2.742456
LeftLeg -0.526916 -0.000000 0.000000
LeftFoot -8.569586 -4.102173 -19.960587
LeftToeBase 3.924197 -0.000000 -0.000000
RightUpLeg -6.586824 -2.937762 2.191978
RightLeg 1.951451 -0.000000 -0.000000
RightFoot -8.975956 3.372405 -2.926625
RightToeBase -4.994694 -0.000000 0.000000
824
root -1.636380 32.854837 2.880156 12.043177 -3.070998 -2.547649
Spine -12.577804 6.548492 1.502985
Head -10.540172 -7.269099 12.782051
LeftShoulder -15.492414 22.478349 29.117472
LeftArm 16.821700 -24.897997 -26.018694
LeftForeArm 10.079748 -0.000000 11.552405
LeftHand -27.374236 -0.000000 -9.171086
LeftHandThumb1 -26.253704 0.000000 33.147579
RightShoulder -20.410313 10.340267 -42.383265
RightArm -8.270596 9.975514 27.882556
RightForeArm -31.497364 -0.000000 15.663317
RightHand -12.409959 -0.000000 7.957563
RightHandThumb1 -24.326973 -0.000000 -32.862282
LeftUpLeg -5.488777 13.244924 -2.748239
LeftLeg -0.529134 -0.000000 0.000000
LeftFoot -8.587245 -4.095011 -19.980017
LeftToeBase 4.336798 -0.000000 -0.000000
RightUpLeg -6.581547 -2.907740 2.184166
RightLeg 1.953125 -0.000000 -0.000000
RightFoot -8.980676 3.349446 -2.929435
RightToeBase -4.976184 -0.000000 0.000000
825
root -1.634094 32.853678 2.877116 12.031556 -3.071429 -2.547109
Spine -12.599521 6.533026 1.508682
Head -10.559348 -7.345742 12.837782
LeftShoulder -15.511253 22.490692 29.096851
LeftArm 16.854906 -24.894416 -26.004973
LeftForeArm 10.105414 -0.000000 11.513184
LeftHand -27.371915 -0.000000 -9.194007
LeftHandThumb1 -26.253704 0.000000 33.147579
RightShoulder -20.391798 10.347008 -42.368601
RightArm -8.194160 9.908734 27.874677
RightForeArm -31.541423 -0.000000 15.673885
RightHand -12.387461 -0.000000 7.863460
RightHandThumb1 -24.326973 -0.000000 -32.862282
LeftUpLeg -5.476206 13.242709 -2.753833
LeftLeg -0.543373 -0.000000 0.000000
LeftFoot -8.591789 -4.079999 -19.972598
LeftToeBase 4.242127 -0.000000 -0.000000
RightUpLeg -6.572328 -2.885169 2.181331
RightLeg 1.950968 -0.000000 -0.000000
RightFoot -8.986991 3.279781 -2.984471
RightToeBase -4.996610 -0.000000 0.000000
826
root -1.630397 32.852283 2.873170 12.015075 -3.098209 -2.551669
Spine -12.608197 6.571353 1.514327
Head -10.606291 -7.481753 12.889434
LeftShoulder -15.507240 22.538001 29.071349
LeftArm 16.894046 -24.945048 -26.014970
LeftForeArm 10.083705 -0.000000 11.497227
LeftHand -27.394967 0.000000 -9.202633
LeftHandThumb1 -26.253704 0.000000 33.147579
RightShoulder -20.395160 10.330845 -42.352310
RightArm -8.081704 9.967106 27.846393
RightForeArm -31.581869 0.000000 15.560026
RightHand -12.207960 0.000000 7.858031
RightHandThumb1 -24.326973 -0.000000 -32.862282
LeftUpLeg -5.454042 13.282020 -2.761204
LeftLeg -0.565294 -0.000000 0.000000
LeftFoot -8.613037 -4.068189 -19.953198
LeftToeBase 3.991158 -0.000000 -0.000000
RightUpLeg -6.561534 -2.820233 2.169307
RightLeg 1.945949 -0.000000 -0.000000
RightFoot -8.990211 3.240805 -2.985454
RightToeBase -5.022987 -0.000000 0.000000
827
root -1.628216 32.851489 2.869382 12.012746 -3.075703 -2.556489
Spine -12.636722 6.560352 1.522665
Head -10.647430 -7.597476 12.939963
LeftShoulder -15.486636 22.549858 29.052345
LeftArm 16.875768 -24.997677 -26.012366
LeftForeArm 10.090878 -0.000000 11.518113
LeftHand -27.474234 -0.000000 -9.211908
LeftHandThumb1 -26.253704 0.000000 33.147579
RightShoulder -20.384329 10.330596 -42.326681
RightArm -8.070316 9.949352 27.818254
RightForeArm -31.545695 -0.000000 15.586362
RightHand -12.218357 0.000000 7.887137
RightHandThumb1 -24.326973 -0.000000 -32.862282
LeftUpLeg -5.443385 13.274340 -2.755843
LeftLeg -0.597047 -0.000000 0.000000
LeftFoot -8.602481 -4.107377 -19.984271
LeftToeBase 4.300609 -0.000000 -0.000000
RightUpLeg -6.560906 -2.805833 2.173868
RightLeg 1.939963 -0.000000 -0.000000
RightFoot -8.997015 3.221690 -2.941846
RightToeBase -4.960636 -0.000000 0.000000
